<svg xmlns="http://www.w3.org/2000/svg"  version="1.1" id="Layer_1" x="0px" y="0px" viewBox="0 0 480 480" style="enable-background:new 0 0 480 480;" xml:space="preserve"><path style="" d="M313.5,8h-217c-13.25,0-24,10.75-24,24v416c0,13.25,10.75,24,24,24h217c13.25,0,24-10.75,24-24V32 C337.5,18.75,326.75,8,313.5,8z" fill="#CBE3FA"></path><path style="" d="M324.066,28h-42.32c-5.205,0-9.023-4.891-7.761-9.94L276.5,8h37c6.103,0,11.677,2.282,15.914,6.041 C334.903,18.91,331.404,28,324.066,28z" fill="#EEF7FF"></path><path style="" d="M115.87,16v448c0,4.418-3.582,8-8,8H96.5c-13.255,0-24-10.745-24-24V32c0-13.255,10.745-24,24-24 h11.37C112.288,8,115.87,11.582,115.87,16z" fill="#EEF7FF"></path><path style="" d="M276.5,8l-5.46,21.82C268.37,40.5,258.77,48,247.76,48h-85.52c-11.01,0-20.61-7.5-23.28-18.18 L133.5,8H276.5z" fill="#585966"></path><path style="fill: rgb(48, 50, 79);" d="M276.5,8l-3.485,13.94c-0.89,3.561-4.09,6.06-7.761,6.06H176.5c-8.341,0-15.689,4.258-19.987,10.722 c-2.936,4.415-9.354,4.677-12.742,0.599c-2.244-2.702-3.916-5.923-4.811-9.501L133.5,8H276.5z" fill="#6E6F80"></path><circle style="" cx="307.5" cy="240" r="100" fill="#FFE773"></circle><path style="" d="M357.276,153.248c7.737,4.449,4.815,16.407-4.102,16.786C301.466,172.234,257.5,214.84,257.5,270 c0,15.511,3.531,30.198,9.834,43.299c3.885,8.076-5.296,16.242-12.89,11.481c-28.646-17.962-47.54-50.043-46.93-86.493 c0.919-54.898,46.692-99.138,101.591-98.274C326.626,140.288,343.052,145.069,357.276,153.248z" fill="#FFF0A6"></path><g><path d="M225.5,446c4.418,0,8-3.582,8-8s-3.582-8-8-8h-42c-4.418,0-8,3.582-8,8s3.582,8,8,8H225.5z" fill="#000000"></path><path d="M307.5,348c59.552,0,108-48.449,108-108s-48.448-108-108-108s-108,48.449-108,108c0,38.429,20.685,74.271,53.98,93.539 c3.825,2.213,8.718,0.906,10.931-2.917c2.213-3.824,0.907-8.718-2.917-10.931C233.124,303.273,215.5,272.738,215.5,240 c0-50.729,41.271-92,92-92s92,41.271,92,92s-41.271,92-92,92c-4.418,0-8,3.582-8,8S303.082,348,307.5,348z" fill="#000000"></path><path d="M307.763,267.739c-5.727,0-11.151-2.272-13.82-5.789c-2.67-3.52-7.688-4.206-11.209-1.536 c-3.519,2.671-4.207,7.69-1.535,11.209c4.305,5.672,10.943,9.634,18.564,11.272v6.604c0,4.418,3.582,8,8,8s8-3.582,8-8v-6.623 c13.454-2.95,23.404-13.154,23.404-25.257c0-19.854-17.933-23.527-29.799-25.957c-14.148-2.897-17.01-4.627-17.01-10.282 c0-5.391,7.198-10.119,15.404-10.119c5.813,0,11.109,2.218,13.82,5.79c2.673,3.519,7.689,4.206,11.209,1.535 c3.52-2.672,4.206-7.69,1.535-11.209c-4.306-5.672-10.944-9.633-18.564-11.271V189.5c0-4.418-3.582-8-8-8s-8,3.582-8,8v6.623 c-13.454,2.95-23.404,13.154-23.404,25.257c0,19.854,17.933,23.527,29.799,25.957c14.148,2.897,17.01,4.627,17.01,10.282 C323.167,263.01,315.969,267.739,307.763,267.739z" fill="#000000"></path><path d="M386.072,351.312c-12.541,8.542-26.284,14.821-40.73,18.686c-0.735-3.66-3.966-6.417-7.842-6.417c-4.418,0-8,3.582-8,8 v1.63c-81.689,11.568-153.547-52.075-153.547-133.149c0-83.701,76.348-148.043,159.897-132.111 c12.133,2.555,22.109,5.497,34.292,11.546l-9.332,1.951c-4.325,0.904-7.098,5.143-6.194,9.467c0.908,4.342,5.164,7.097,9.468,6.194 l30.053-6.282c4.629-0.967,7.399-5.711,6.003-10.204l-9.109-29.319c-1.312-4.22-5.797-6.578-10.014-5.266 c-4.219,1.311-6.576,5.794-5.266,10.013l3.085,9.929c-10.61-5.427-21.781-9.557-33.336-12.31V32c0-17.645-14.355-32-32-32H183.854 c-4.418,0-8,3.582-8,8s3.582,8,8,8H313.5c8.822,0,16,7.178,16,16v58.774c-90.403-11.393-169.547,59.176-169.547,149.288 c0,89.961,79.007,160.713,169.547,149.284V448c0,8.822-7.178,16-16,16h-217c-8.822,0-16-7.178-16-16V32c0-8.822,7.178-16,16-16 h30.754l3.94,15.761C134.762,46.033,147.527,56,162.238,56h85.523c7.761,0,15.251-2.818,21.091-7.935 c3.323-2.912,3.657-7.966,0.746-11.289c-2.914-3.324-7.968-3.657-11.289-0.745C255.388,38.59,251.643,40,247.762,40h-85.523 c-7.355,0-13.738-4.984-15.522-12.12L141.261,6.06C140.371,2.499,137.171,0,133.5,0h-37c-17.645,0-32,14.355-32,32v416 c0,17.645,14.355,32,32,32h217c17.645,0,32-14.355,32-32v-61.558c17.625-4.201,34.392-11.563,49.58-21.907 c3.651-2.487,4.596-7.463,2.108-11.115C394.701,349.768,389.726,348.824,386.072,351.312z" fill="#000000"></path></g></svg>