<svg viewBox="0 0 48 48" id="a" xmlns="http://www.w3.org/2000/svg" fill="#000000"><g id="SVGRepo_bgCarrier" stroke-width="2"></g><g id="SVGRepo_tracerCarrier" stroke-linecap="round" stroke-linejoin="round"></g><g id="SVGRepo_iconCarrier"> <defs> <style>.t{fill:none;stroke:#000000;stroke-linecap:round;stroke-linejoin:round;    stroke-width: 1.35;}</style> </defs> <g id="b"> <line stroke-width="1.5" id="c" class="t" x1="28.4318" y1="12.9115" x2="30.5405" y2="12.9115"></line> <line id="d" class="t" x1="28.4318" y1="15.0202" x2="29.8024" y2="15.0202"></line> <line id="e" class="t" x1="28.4318" y1="12.9115" x2="28.4318" y2="17.1289"></line> </g> <path id="f" class="t" d="M23.5849,17.129v-4.2174h.6853c1.1598,0,2.1087,.9489,2.1087,2.1087h0c0,1.1598-.9489,2.1087-2.1087,2.1087h-.6853Z"></path> <g id="g"> <path id="h" class="t" d="M18.9045,16.8963v-4.2174h1.3707c.7908,0,1.4234,.6326,1.4234,1.4234s-.6326,1.4234-1.4234,1.4234h-1.3707"></path> </g> <path id="i" class="t" d="M16.6627,35.6723h7.6508"></path> <path id="j" class="t" d="M16.6921,32.6919h13.7214"></path> <path id="k" class="t" d="M16.6921,29.5563h16.1546"></path> <rect id="l" class="t" x="12.8772" y="9.2878" width="23.3737" height="30.0519" rx="2.0054" ry="2.0054"></rect> <path id="m" class="t" d="M13.2512,5.4749H7.0302v6.3715"></path> <path id="n" class="t" d="M34.7237,5.4749h6.3214v6.3715"></path> <path id="o" class="t" d="M41.0451,36.2288v6.2963h-6.3214"></path> <path id="p" class="t" d="M13.2512,42.5251H7.0302v-6.2963"></path> <path id="q" class="t" d="M5.5,24.0878H42.5"></path> <path id="r" class="t" d="M16.6627,20.7264h16.1546"></path> <path id="s" class="t" d="M16.6921,25.919h16.1546"></path> </g></svg>