<!-- icon666.com - MILLIONS vector ICONS FREE --><svg viewBox="1 -11 511.999 511" xmlns="http://www.w3.org/2000/svg"><path d="m435.550781 8h-359.101562c-38.078125 0-68.949219 30.871094-68.949219 68.949219v242.191406c0 38.082031 30.871094 68.953125 68.949219 68.953125h78.828125c9.636718 0 18.703125 4.558594 24.453125 12.292969l51.96875 69.933593c12.105469 16.292969 36.496093 16.292969 48.601562 0l51.96875-69.933593c5.75-7.734375 14.816407-12.292969 24.453125-12.292969h78.828125c38.078125 0 68.949219-30.871094 68.949219-68.953125v-242.1875c0-38.082031-30.871094-68.953125-68.949219-68.953125zm0 0" fill="#eb8d9a"></path><path d="m407.347656 87.933594c-22.132812-22.710938-51.777344-35.222656-83.46875-35.222656-24.699218 0-48.222656 7.632812-67.878906 21.78125-19.65625-14.148438-43.179688-21.78125-67.878906-21.78125-10.9375 0-21.625 1.527343-31.851563 4.414062 2.476563-18.648438 7.128907-35.292969 14.296875-49.125h-94.117187c-38.078125 0-68.949219 30.871094-68.949219 68.949219v242.191406c0 38.082031 30.871094 68.953125 68.949219 68.953125h78.828125c9.636718 0 18.703125 4.558594 24.453125 12.292969l51.96875 69.933593c12.105469 16.292969 36.496093 16.292969 48.601562 0l11.089844-14.921874c-20.394531-13.902344-42.679687-44.8125-63.25-84.699219 8.449219 4.617187 17.964844 7.082031 27.859375 7.082031 15.542969 0 30.152344-6.054688 41.144531-17.042969l108.109375-108.109375c45.402344-45.402344 46.34375-119.28125 2.09375-164.695312zm0 0" fill="#d67c88"></path><path d="m256 101.351562c-37.789062-37.785156-99.242188-37.484374-136.648438.90625-36.820312 37.785157-35.398437 98.554688 1.90625 135.859376l108.109376 108.109374c14.707031 14.710938 38.554687 14.710938 53.265624 0l108.109376-108.109374c37.304687-37.304688 38.722656-98.074219 1.90625-135.859376-37.40625-38.390624-98.863282-38.691406-136.648438-.90625zm0 0" fill="#fff"></path><path d="m170.363281 74.90625c-18.746093 3.511719-36.652343 12.617188-51.011719 27.351562-36.820312 37.785157-35.398437 98.554688 1.90625 135.859376l108.109376 108.109374c14.707031 14.710938 38.554687 14.710938 53.265624 0l38.398438-38.398437c-123.695312 14.488281-222.261719-146.257813-150.667969-232.921875zm0 0" fill="#eeeeed"></path><path d="m200.992188 198.550781c0-14.144531-14.398438-25.613281-32.164063-25.613281-17.761719 0-32.164063 11.46875-32.164063 25.613281 0 14.148438 14.402344 25.617188 32.164063 25.617188 17.765625 0 32.164063-11.46875 32.164063-25.617188zm0 0" fill="#eb8d9a"></path><path d="m375.335938 198.550781c0-14.144531-14.402344-25.613281-32.164063-25.613281-17.765625 0-32.164063 11.46875-32.164063 25.613281 0 14.148438 14.398438 25.617188 32.164063 25.617188 17.761719 0 32.164063-11.46875 32.164063-25.617188zm0 0" fill="#eb8d9a"></path><path d="m256 202.175781c-12.871094 0-23.304688-10.433593-23.304688-23.304687v-16.941406c0-3.511719 2.851563-6.359376 6.363282-6.359376h33.882812c3.511719 0 6.363282 2.847657 6.363282 6.359376v16.941406c0 12.871094-10.433594 23.304687-23.304688 23.304687zm0 0" fill="#495059"></path><path d="m140.6875 94.5c3.492188-2.222656 4.523438-6.859375 2.300781-10.351562-2.222656-3.496094-6.859375-4.527344-10.355469-2.304688-6.746093 4.292969-13.023437 9.402344-18.652343 15.183594-39.300781 40.332031-38.414063 106.003906 1.972656 146.394531l108.113281 108.109375c8.527344 8.53125 19.871094 13.226562 31.933594 13.226562 12.066406 0 23.40625-4.695312 31.9375-13.226562l108.109375-108.109375c40.390625-40.390625 41.273437-106.0625 1.976563-146.394531-19.484376-19.996094-45.574219-31.105469-73.46875-31.289063-.230469 0-.460938 0-.695313 0-25.210937 0-49.023437 8.941407-67.863281 25.359375-24.144532-20.996094-56.640625-29.691406-88.339844-23.328125-4.0625.816407-6.691406 4.769531-5.878906 8.832031.816406 4.0625 4.769531 6.683594 8.832031 5.875 29.152344-5.855468 59.089844 3.183594 80.089844 24.179688 2.929687 2.929688 7.675781 2.929688 10.605469 0 16.726562-16.730469 38.921874-25.917969 62.558593-25.917969h.59375c23.851563.15625 46.160157 9.65625 62.820313 26.757813 33.605468 34.484375 32.777344 90.703125-1.839844 125.320312l-108.109375 108.109375c-5.695313 5.695313-13.269531 8.832031-21.328125 8.832031s-15.632812-3.136718-21.328125-8.832031l-108.109375-108.109375c-34.617188-34.617187-35.441406-90.835937-1.839844-125.324218 4.824219-4.949219 10.195313-9.320313 15.964844-12.992188zm41.019531 73.808594v-13.804688c0-4.144531-3.359375-7.5-7.5-7.5-4.144531 0-7.5 3.355469-7.5 7.5v13.804688c0 4.144531 3.355469 7.5 7.5 7.5 4.140625 0 7.5-3.359375 7.5-7.5zm105.097657 10.5625v-16.941406c0-7.644532-6.21875-13.859376-13.863282-13.859376h-33.882812c-7.644532 0-13.863282 6.214844-13.863282 13.859376v16.941406c0 16.984375 13.820313 30.804687 30.804688 30.804687s30.804688-13.820312 30.804688-30.804687zm-46.609376 0v-15.804688h31.609376v15.804688c0 8.714844-7.089844 15.804687-15.804688 15.804687s-15.804688-7.089843-15.804688-15.804687zm195.355469-178.371094h-359.101562c-42.152344 0-76.449219 34.296875-76.449219 76.449219v242.191406c0 42.15625 34.296875 76.449219 76.449219 76.449219h78.828125c7.230468 0 14.121094 3.464844 18.433594 9.269531l51.96875 69.9375c6.40625 8.617187 16.199218 14.117187 26.871093 15.085937 1.148438.105469 2.296875.15625 3.441407.15625 9.527343 0 18.75-3.582031 25.71875-10.082031 3.027343-2.828125 3.195312-7.574219.367187-10.601562-2.824219-3.027344-7.570313-3.195313-10.597656-.367188-4.691407 4.371094-11.09375 6.546875-17.574219 5.957031-6.519531-.59375-12.265625-3.824218-16.1875-9.097656l-51.96875-69.933594c-7.128906-9.597656-18.519531-15.324218-30.472656-15.324218h-78.828125c-33.882813 0-61.449219-27.566406-61.449219-61.449219v-242.191406c0-33.882813 27.566406-61.449219 61.449219-61.449219h359.101562c33.882813 0 61.449219 27.566406 61.449219 61.449219v242.191406c0 33.886719-27.566406 61.449219-61.449219 61.449219h-78.828125c-11.953125 0-23.34375 5.730468-30.472656 15.324218l-34.332031 46.199219c-2.46875 3.324219-1.777344 8.019531 1.546875 10.492188 3.324218 2.472656 8.019531 1.777343 10.492187-1.546875l34.332031-46.199219c4.3125-5.804687 11.203126-9.269531 18.433594-9.269531h78.824219c42.15625 0 76.453125-34.292969 76.453125-76.449219v-242.191406c0-42.152344-34.296875-76.449219-76.449219-76.449219zm-90.257812 167.808594v-13.804688c0-4.144531-3.355469-7.5-7.5-7.5-4.140625 0-7.5 3.355469-7.5 7.5v13.804688c0 4.144531 3.359375 7.5 7.5 7.5 4.144531 0 7.5-3.359375 7.5-7.5zm0 0"></path></svg>