<!-- icon666.com - MILLIONS vector ICONS FREE --><svg id="Layer_1" enable-background="new 0 0 256 256" viewBox="0 0 256 256" xmlns="http://www.w3.org/2000/svg"><g><circle cx="127.563" cy="125.948" fill="#72c1e8" r="56.39"></circle><path d="m127.563 174.374c-7.298 0-14.608-1.67-21.139-4.83-1.243-.601-1.763-2.096-1.162-3.339s2.095-1.765 3.339-1.162c5.856 2.833 12.413 4.331 18.961 4.331 24.04 0 43.425-19.381 43.425-43.426 0-11.62-4.511-22.53-12.703-30.722-.977-.976-.977-2.559 0-3.535.976-.977 2.56-.977 3.535 0 9.136 9.136 14.168 21.302 14.168 34.257.001 26.802-21.617 48.426-48.424 48.426zm-30.054-10.423c-1.462-1.158-2.876-2.418-4.204-3.746-.977-.976-.977-2.559 0-3.535.976-.977 2.56-.977 3.535 0 1.192 1.191 2.461 2.323 3.773 3.361 1.083.857 1.265 2.43.407 3.512-.856 1.083-2.428 1.265-3.511.408z" fill="#c5e5ff"></path><g fill="#f0c020"><path d="m137.611 40.695c-3.846-1.271-7.818-2.382-10.049-11.989-2.054 8.848-5.345 10.434-10.049 11.989 7.672 2.535 8.829 6.733 10.049 11.989 2.103-9.061 5.58-10.512 10.049-11.989z"></path><path d="m137.611 211.195c-3.846-1.271-7.818-2.382-10.049-11.989-2.054 8.848-5.345 10.434-10.049 11.989 7.672 2.535 8.829 6.733 10.049 11.989 2.103-9.061 5.58-10.512 10.049-11.989z"></path><path d="m52.41 126.058c-3.846-1.271-7.818-2.382-10.049-11.989-2.054 8.848-5.345 10.434-10.049 11.989 7.672 2.535 8.829 6.733 10.049 11.989 2.102-9.061 5.58-10.512 10.049-11.989z"></path><path d="m222.9 127.782c-3.846-1.271-7.818-2.382-10.049-11.989-2.054 8.848-5.345 10.434-10.049 11.989 7.672 2.535 8.829 6.733 10.049 11.989 2.102-9.061 5.579-10.512 10.049-11.989z"></path></g><path d="m163.406 125.957c0 11.168-5.105 21.138-13.121 27.716-6.192 5.068-14.098 8.127-22.722 8.127s-16.53-3.059-22.722-8.127c-8.016-6.579-13.121-16.549-13.121-27.716 0-19.811 16.051-35.862 35.843-35.862s35.843 16.051 35.843 35.862z" fill="#efefef"></path><circle cx="127.563" cy="121.418" fill="#ffb69f" r="11.671"></circle><path d="m150.285 151.518v2.156c-6.192 5.068-14.098 8.127-22.722 8.127s-16.53-3.059-22.722-8.127v-2.156c0-10.173 8.238-18.428 18.428-18.428h8.588c10.19-.001 18.428 8.255 18.428 18.428z" fill="#fc5d3d"></path><path d="m112.564 152.152c-1.36-.241-2.266-1.539-2.025-2.898 1.096-6.18 6.45-10.666 12.729-10.666 1.381 0 2.5 1.119 2.5 2.5s-1.119 2.5-2.5 2.5c-3.851 0-7.134 2.75-7.807 6.539-.241 1.365-1.544 2.267-2.897 2.025z" fill="#ffcbc2"></path><path d="m79.413 42.708c0 11.881-5.607 22.555-14.39 29.34-6.857 5.284-14.768 7.77-22.72 7.77-8.56 0-16.45-2.9-22.72-7.76-8.76-6.79-14.39-17.41-14.39-29.35 0-5.54 1.21-10.79 3.39-15.51 3.5-7.6 9.49-13.87 17.15-17.7 4.99-2.5 10.61-3.9 16.57-3.9 20.5 0 37.11 16.61 37.11 37.11z" fill="#efefef"></path><circle cx="42.301" cy="28.353" fill="#ffb69f" r="11.671"></circle><path d="m65.023 58.458v13.59c-6.857 5.284-14.768 7.77-22.72 7.77-8.56 0-16.45-2.9-22.72-7.76v-13.6c0-10.18 8.23-18.43 18.42-18.43h8.59c10.19 0 18.43 8.25 18.43 18.43z" fill="#f0c020"></path><path d="m28.583 69.759c-1.381 0-2.5-1.119-2.5-2.5v-8.801c0-6.578 5.347-11.93 11.92-11.93 1.381 0 2.5 1.119 2.5 2.5s-1.119 2.5-2.5 2.5c-3.815 0-6.92 3.109-6.92 6.93v8.801c0 1.381-1.12 2.5-2.5 2.5z" fill="#f9e5af"></path><path d="m176.587 42.708c0 11.881 5.607 22.555 14.39 29.34 6.856 5.284 14.768 7.77 22.72 7.77 8.56 0 16.45-2.9 22.72-7.76 8.76-6.79 14.39-17.41 14.39-29.35 0-5.54-1.21-10.79-3.39-15.51-3.5-7.6-9.49-13.87-17.15-17.7-4.99-2.5-10.61-3.9-16.57-3.9-20.5 0-37.11 16.61-37.11 37.11z" fill="#efefef"></path><circle cx="213.699" cy="28.353" fill="#ffb69f" r="11.671"></circle><path d="m190.977 58.458v13.59c6.856 5.284 14.768 7.77 22.72 7.77 8.56 0 16.45-2.9 22.72-7.76v-13.6c0-10.18-8.23-18.43-18.42-18.43h-8.59c-10.19 0-18.43 8.25-18.43 18.43z" fill="#f0c020"></path><path d="m79.413 213.292c0 11.881-5.607 22.555-14.39 29.34-6.857 5.284-14.768 7.77-22.72 7.77-8.56 0-16.45-2.9-22.72-7.76-8.76-6.79-14.39-17.41-14.39-29.35 0-5.54 1.21-10.79 3.39-15.51 3.5-7.6 9.49-13.87 17.15-17.7 4.99-2.5 10.61-3.9 16.57-3.9 20.5 0 37.11 16.61 37.11 37.11z" fill="#efefef"></path><circle cx="42.301" cy="198.937" fill="#ffb69f" r="11.671"></circle><path d="m65.023 229.042v13.59c-6.857 5.284-14.768 7.77-22.72 7.77-8.56 0-16.45-2.9-22.72-7.76v-13.6c0-10.18 8.23-18.43 18.42-18.43h8.59c10.19 0 18.43 8.25 18.43 18.43z" fill="#f0c020"></path><path d="m176.587 213.292c0 11.881 5.607 22.555 14.39 29.34 6.856 5.284 14.768 7.77 22.72 7.77 8.56 0 16.45-2.9 22.72-7.76 8.76-6.79 14.39-17.41 14.39-29.35 0-5.54-1.21-10.79-3.39-15.51-3.5-7.6-9.49-13.87-17.15-17.7-4.99-2.5-10.61-3.9-16.57-3.9-20.5 0-37.11 16.61-37.11 37.11z" fill="#efefef"></path><circle cx="213.699" cy="198.937" fill="#ffb69f" r="11.671"></circle><path d="m190.977 229.042v13.59c6.856 5.284 14.768 7.77 22.72 7.77 8.56 0 16.45-2.9 22.72-7.76v-13.6c0-10.18-8.23-18.43-18.42-18.43h-8.59c-10.19 0-18.43 8.25-18.43 18.43z" fill="#f0c020"></path><path d="m200.225 69.759c-1.381 0-2.5-1.119-2.5-2.5v-8.801c0-6.578 5.347-11.93 11.92-11.93 1.381 0 2.5 1.119 2.5 2.5s-1.119 2.5-2.5 2.5c-3.815 0-6.92 3.109-6.92 6.93v8.801c0 1.381-1.119 2.5-2.5 2.5z" fill="#f9e5af"></path><path d="m28.583 242.122c-1.381 0-2.5-1.119-2.5-2.5v-8.801c0-6.578 5.347-11.93 11.92-11.93 1.381 0 2.5 1.119 2.5 2.5s-1.119 2.5-2.5 2.5c-3.815 0-6.92 3.109-6.92 6.93v8.801c0 1.381-1.12 2.5-2.5 2.5z" fill="#f9e5af"></path><path d="m200.225 242.122c-1.381 0-2.5-1.119-2.5-2.5v-8.801c0-6.578 5.347-11.93 11.92-11.93 1.381 0 2.5 1.119 2.5 2.5s-1.119 2.5-2.5 2.5c-3.815 0-6.92 3.109-6.92 6.93v8.801c0 1.381-1.119 2.5-2.5 2.5z" fill="#f9e5af"></path><path d="m125.047 28.122c-1.852 7.975-4.434 8.829-8.343 10.121-2.354.778-2.359 4.125 0 4.905 6.493 2.145 7.229 5.317 8.342 10.12.619 2.664 4.414 2.663 5.032 0 1.85-7.975 4.573-8.875 8.343-10.12 2.354-.778 2.359-4.126 0-4.905-3.621-1.193-6.45-1.964-8.343-10.12-.616-2.659-4.416-2.652-5.031-.001zm2.525 8.128c1.165 2.099 2.492 3.488 3.863 4.468-1.43 1.005-2.713 2.353-3.821 4.311-.915-1.542-2.185-3-4.044-4.276 1.504-1.031 2.85-2.43 4.002-4.503z"></path><path d="m116.704 208.743c-2.354.777-2.359 4.125 0 4.905 6.493 2.145 7.229 5.317 8.342 10.12.619 2.663 4.414 2.663 5.032 0 1.85-7.975 4.573-8.875 8.343-10.12 2.354-.778 2.359-4.126 0-4.905-3.621-1.193-6.45-1.964-8.343-10.12-.616-2.658-4.417-2.651-5.031 0-1.852 7.974-4.434 8.828-8.343 10.12zm10.868-1.993c1.165 2.099 2.492 3.488 3.863 4.469-1.43 1.005-2.713 2.353-3.821 4.311-.915-1.542-2.185-3-4.044-4.276 1.504-1.032 2.85-2.431 4.002-4.504z"></path><path d="m39.845 138.63c.619 2.663 4.414 2.663 5.032 0 1.85-7.975 4.573-8.875 8.343-10.12 2.354-.778 2.359-4.126 0-4.905-3.621-1.193-6.45-1.964-8.343-10.12-.616-2.658-4.417-2.651-5.031 0-1.852 7.975-4.434 8.829-8.343 10.121-2.354.778-2.359 4.125 0 4.905 6.492 2.145 7.228 5.317 8.342 10.119zm2.526-17.017c1.165 2.099 2.492 3.488 3.863 4.468-1.43 1.005-2.713 2.353-3.821 4.311-.915-1.542-2.185-3-4.044-4.276 1.504-1.031 2.85-2.43 4.002-4.503z"></path><path d="m215.367 115.206c-.616-2.658-4.417-2.651-5.031 0-1.852 7.975-4.434 8.829-8.343 10.121-2.354.778-2.359 4.125 0 4.905 6.493 2.145 7.229 5.317 8.343 10.12.619 2.664 4.414 2.663 5.032 0 1.85-7.975 4.573-8.875 8.343-10.12 2.354-.778 2.359-4.126 0-4.905-3.622-1.193-6.451-1.965-8.344-10.121zm-2.464 16.908c-.915-1.542-2.185-3-4.044-4.276 1.504-1.032 2.85-2.432 4.002-4.504 1.165 2.099 2.492 3.488 3.863 4.468-1.43 1.005-2.714 2.353-3.821 4.312z"></path><path d="m126.84 182.39c.038 1.278 1.029 2.42 2.58 2.42 1.37-.04 2.46-1.2 2.42-2.58-.05-1.38-1.2-2.48-2.58-2.42-1.381.041-2.461 1.199-2.42 2.58z"></path><path d="m147.54 99.25h.01c1.104.829 2.665.605 3.49-.5.833-1.125.607-2.679-.5-3.5-1.07-.81-2.69-.57-3.5.5-.82 1.1-.6 2.67.5 3.5z"></path><path d="m127.56 92.59c4.09.01 8.08.74 11.87 2.18 1.26.48 2.75-.2 3.22-1.45.494-1.277-.145-2.739-1.44-3.22-4.35-1.66-8.94-2.5-13.63-2.5h-.02c-21.195 0-38.34 17.149-38.34 38.36 0 21.255 17.24 38.341 38.343 38.341 21.03 0 38.347-17.036 38.347-38.341 0-8.47-2.7-16.49-7.81-23.2-.81-1.07-2.43-1.29-3.5-.48-1.07.828-1.333 2.37-.48 3.5 4.44 5.84 6.79 12.82 6.79 20.18 0 8.246-3.026 16.074-8.429 22.139-1.325-8.01-7.197-14.491-14.88-16.69 2.553-2.564 4.134-6.096 4.134-9.992 0-7.814-6.357-14.171-14.171-14.171s-14.171 6.357-14.171 14.171c0 3.895 1.581 7.427 4.134 9.992-7.684 2.199-13.556 8.68-14.88 16.691-5.398-6.066-8.425-13.894-8.425-22.141.028-18.359 14.988-33.329 33.338-33.369zm.003 19.657c5.057 0 9.171 4.114 9.171 9.171s-4.114 9.171-9.171 9.171-9.171-4.114-9.171-9.171c-.001-5.057 4.113-9.171 9.171-9.171zm-4.294 23.342h8.588c8.783 0 15.929 7.146 15.929 15.929v.939c-.022.017-.044.035-.066.052-5.778 4.377-12.865 6.779-20.106 6.79-.018 0-.035.001-.053.001-.014 0-.029-.001-.043-.001-7.257-.01-14.362-2.421-20.147-6.816-.01-.008-.02-.016-.03-.023v-.942c-.001-8.784 7.145-15.929 15.928-15.929z"></path><path d="m16.044 8.554c-1.381 0-2.5 1.119-2.5 2.5v2.898h-2.898c-1.381 0-2.5 1.119-2.5 2.5s1.119 2.5 2.5 2.5h2.898v2.898c0 1.381 1.119 2.5 2.5 2.5s2.5-1.119 2.5-2.5v-2.898h2.898c1.381 0 2.5-1.119 2.5-2.5s-1.119-2.5-2.5-2.5h-2.898v-2.898c0-1.381-1.119-2.5-2.5-2.5z"></path><path d="m239.956 8.554c-1.381 0-2.5 1.119-2.5 2.5v2.898h-2.898c-1.381 0-2.5 1.119-2.5 2.5s1.119 2.5 2.5 2.5h2.898v2.898c0 1.381 1.119 2.5 2.5 2.5s2.5-1.119 2.5-2.5v-2.898h2.898c1.381 0 2.5-1.119 2.5-2.5s-1.119-2.5-2.5-2.5h-2.898v-2.898c0-1.381-1.12-2.5-2.5-2.5z"></path><path d="m16.044 179.138c-1.381 0-2.5 1.119-2.5 2.5v2.898h-2.898c-1.381 0-2.5 1.119-2.5 2.5s1.119 2.5 2.5 2.5h2.898v2.898c0 1.381 1.119 2.5 2.5 2.5s2.5-1.119 2.5-2.5v-2.898h2.898c1.381 0 2.5-1.119 2.5-2.5s-1.119-2.5-2.5-2.5h-2.898v-2.898c0-1.381-1.119-2.5-2.5-2.5z"></path><path d="m6.313 196.734c-2.402 5.202-3.621 10.773-3.621 16.558 0 12.342 5.598 23.76 15.358 31.326 6.992 5.419 15.378 8.284 24.252 8.284 21.782 0 39.61-17.647 39.61-39.61 0-9.947-3.694-19.043-9.772-26.007l16.5-17.144c8.528 7.509 19.073 12.432 30.369 14.078 1.305.218 2.638-.728 2.83-2.11.205-1.353-.737-2.633-2.11-2.84-26.26-3.82-46.06-26.74-46.06-53.32 0-29.781 24.112-53.89 53.89-53.89 14.4 0 27.93 5.61 38.11 15.78 10.18 10.18 15.78 23.72 15.78 38.11.01 25.33-17.96 47.51-42.71 52.73-1.387.294-2.206 1.627-1.94 2.96.28 1.32 1.64 2.21 2.97 1.93 9.901-2.085 19.12-6.766 26.706-13.439l16.977 17.624c-5.836 6.901-9.365 15.813-9.365 25.537 0 12.214 5.613 23.787 15.364 31.32 7.038 5.423 15.421 8.29 24.246 8.29 8.874 0 17.26-2.864 24.252-8.284 9.76-7.566 15.358-18.984 15.358-31.326 0-5.785-1.218-11.356-3.621-16.558-.579-1.253-2.064-1.8-3.318-1.221s-1.8 2.064-1.221 3.318c2.097 4.54 3.16 9.405 3.16 14.461 0 8.946-3.375 17.329-9.39 23.703v-7.953c0-9.549-6.431-17.607-15.183-20.111 2.554-2.564 4.135-6.098 4.135-9.994 0-7.814-6.357-14.171-14.171-14.171s-14.171 6.357-14.171 14.171c0 3.897 1.582 7.43 4.136 9.995-8.754 2.505-15.186 10.562-15.186 20.11v7.948c-6.084-6.461-9.39-14.925-9.39-23.698 0-19.084 15.526-34.61 34.61-34.61 5.438 0 10.636 1.223 15.451 3.635 1.233.616 2.736.119 3.355-1.116.618-1.234.119-2.736-1.116-3.355-5.516-2.763-11.468-4.165-17.69-4.165-10.32 0-19.727 3.97-26.784 10.459l-16.827-17.469c10.571-11.016 16.363-25.491 16.363-40.723 0-15.125-5.718-29.611-16.375-40.722l14.763-15.395c7.231 7.68 17.465 12.485 28.859 12.485 21.636 0 39.61-17.434 39.61-39.61 0-5.785-1.218-11.356-3.621-16.558-.579-1.254-2.064-1.8-3.318-1.221-1.253.579-1.8 2.064-1.221 3.318 2.097 4.54 3.16 9.405 3.16 14.461 0 8.946-3.375 17.329-9.39 23.703v-7.953c0-9.549-6.431-17.607-15.183-20.111 2.554-2.564 4.135-6.098 4.135-9.994 0-7.814-6.357-14.171-14.171-14.171s-14.171 6.357-14.171 14.171c0 3.897 1.582 7.43 4.136 9.995-8.754 2.505-15.186 10.562-15.186 20.11v7.948c-6.084-6.461-9.39-14.925-9.39-23.698 0-19.084 15.526-34.61 34.61-34.61 5.438 0 10.636 1.223 15.451 3.635 1.233.617 2.736.119 3.355-1.116.618-1.234.119-2.736-1.116-3.355-5.516-2.763-11.468-4.165-17.69-4.165-21.841 0-39.61 17.769-39.61 39.61 0 8.162 2.498 16.286 7.541 23.248l-15.157 15.811c-10.757-9.499-24.478-14.703-38.91-14.703-14.411 0-28.131 5.19-38.907 14.702l-14.66-15.283c5.225-6.968 7.92-15.302 7.92-23.77 0-21.841-17.769-39.61-39.61-39.61-6.222 0-12.174 1.401-17.69 4.165-1.234.619-1.734 2.121-1.116 3.355.619 1.235 2.121 1.733 3.355 1.116 4.815-2.412 10.013-3.635 15.451-3.635 19.084 0 34.61 15.526 34.61 34.61 0 8.736-3.28 17.209-9.39 23.698v-7.948c0-9.547-6.433-17.605-15.186-20.11 2.554-2.564 4.136-6.098 4.136-9.995 0-7.814-6.357-14.171-14.171-14.171s-14.172 6.356-14.172 14.17c0 3.896 1.582 7.429 4.135 9.994-8.751 2.504-15.183 10.562-15.183 20.111v7.953c-6.016-6.374-9.39-14.758-9.39-23.703 0-5.056 1.063-9.921 3.16-14.461.579-1.253.032-2.739-1.221-3.318-1.253-.578-2.739-.032-3.318 1.221-2.402 5.202-3.621 10.773-3.621 16.558 0 22.188 17.986 39.61 39.61 39.61 11.321 0 21.353-4.751 28.425-12.021l14.32 14.929c-10.555 11.005-16.377 25.459-16.377 40.723 0 14.917 5.643 29.553 16.362 40.732l-16.406 17.046c-7.003-6.242-16.225-10.046-26.323-10.046-6.222 0-12.174 1.401-17.69 4.165-1.234.619-1.734 2.121-1.116 3.355.619 1.234 2.121 1.732 3.355 1.116 4.815-2.412 10.013-3.635 15.451-3.635 19.084 0 34.61 15.526 34.61 34.61 0 8.736-3.28 17.209-9.39 23.698v-7.948c0-9.547-6.433-17.605-15.186-20.11 2.554-2.564 4.136-6.098 4.136-9.995 0-7.814-6.357-14.171-14.171-14.171s-14.171 6.357-14.171 14.171c0 3.896 1.582 7.429 4.135 9.994-8.751 2.504-15.183 10.562-15.183 20.111v7.953c-6.016-6.374-9.39-14.758-9.39-23.703 0-5.056 1.063-9.921 3.16-14.461.579-1.253.032-2.739-1.221-3.318-1.254-.579-2.74-.034-3.319 1.22zm207.386-6.968c5.057 0 9.171 4.114 9.171 9.171s-4.114 9.171-9.171 9.171-9.171-4.114-9.171-9.171 4.114-9.171 9.171-9.171zm-4.292 23.346h8.59c8.778 0 15.92 7.146 15.92 15.93v12.344c-5.547 4.051-12.633 6.516-20.22 6.516-7.084 0-14.032-2.126-20.22-6.53v-12.33c.001-8.784 7.147-15.93 15.93-15.93zm4.292-193.93c5.057 0 9.171 4.114 9.171 9.171s-4.114 9.171-9.171 9.171-9.171-4.114-9.171-9.171 4.114-9.171 9.171-9.171zm-4.292 23.346h8.59c8.778 0 15.92 7.146 15.92 15.93v12.344c-.022.016-.043.033-.065.048-5.684 4.084-12.634 6.468-20.155 6.468-7.414 0-14.378-2.35-20.155-6.483-.022-.015-.043-.032-.064-.047v-12.33c0-8.784 7.146-15.93 15.929-15.93zm-167.106-23.346c5.057 0 9.171 4.114 9.171 9.171s-4.114 9.171-9.171 9.171-9.171-4.114-9.171-9.171 4.114-9.171 9.171-9.171zm-20.218 51.62v-12.344c0-8.784 7.142-15.93 15.92-15.93h8.59c8.784 0 15.93 7.146 15.93 15.93v12.329c-.022.016-.044.033-.066.049-5.968 4.268-12.972 6.482-20.154 6.482-7.502 0-14.597-2.41-20.22-6.516zm20.218 118.964c5.057 0 9.171 4.114 9.171 9.171s-4.114 9.171-9.171 9.171-9.171-4.114-9.171-9.171 4.114-9.171 9.171-9.171zm-4.299 23.346h8.59c8.784 0 15.93 7.146 15.93 15.93v12.329c-.022.016-.044.033-.066.049-5.913 4.229-12.91 6.482-20.154 6.482-7.087 0-14.123-2.134-20.155-6.468-.022-.016-.043-.032-.065-.048v-12.344c.001-8.784 7.142-15.93 15.92-15.93z"></path><path d="m239.956 194.934c1.381 0 2.5-1.119 2.5-2.5v-2.898h2.898c1.381 0 2.5-1.119 2.5-2.5s-1.119-2.5-2.5-2.5h-2.898v-2.898c0-1.381-1.119-2.5-2.5-2.5s-2.5 1.119-2.5 2.5v2.898h-2.898c-1.381 0-2.5 1.119-2.5 2.5s1.119 2.5 2.5 2.5h2.898v2.898c0 1.38 1.119 2.5 2.5 2.5z"></path></g></svg>