<svg xmlns="http://www.w3.org/2000/svg" xmlns:xlink="http://www.w3.org/1999/xlink" version="1.1" id="Layer_1" x="0px" y="0px" viewBox="0 0 15.57 12.99" style="enable-background:new 0 0 15.57 12.99;" xml:space="preserve" width="142"  height="118" >
<style type="text/css">
	.st0{fill:#6D7F7B;}
</style>
<g>
	<path class="st0" d="M14.03,0.5c0.34,0,0.64,0.12,0.88,0.37c0.25,0.25,0.37,0.54,0.37,0.88v9.5c0,0.34-0.12,0.64-0.37,0.88   c-0.24,0.25-0.54,0.37-0.88,0.37H1.54c-0.34,0-0.64-0.12-0.88-0.37c-0.25-0.24-0.37-0.54-0.37-0.88v-9.5   c0-0.34,0.12-0.64,0.37-0.88C0.9,0.62,1.19,0.5,1.54,0.5H14.03z M1.54,1.5c-0.07,0-0.13,0.02-0.18,0.07S1.29,1.68,1.29,1.75V3.5   h12.99V1.75c0-0.07-0.02-0.13-0.07-0.18C14.16,1.52,14.1,1.5,14.03,1.5H1.54z M14.03,11.5c0.07,0,0.13-0.02,0.17-0.07   c0.05-0.05,0.07-0.11,0.07-0.18V6.5H1.29v4.75c0,0.07,0.02,0.13,0.07,0.18c0.05,0.05,0.11,0.07,0.18,0.07H14.03z M2.29,10.5v-1h2v1   H2.29z M5.29,10.5v-1h3v1H5.29z"/>
</g>
</svg>