<svg xmlns="http://www.w3.org/2000/svg" xmlns:xlink="http://www.w3.org/1999/xlink" version="1.1" id="Layer_1" x="0px" y="0px" viewBox="0 0 15.57 12.99" style="enable-background:new 0 0 15.57 12.99;" xml:space="preserve" width="142"  height="118" >
<style type="text/css">
	.st0{fill:#6D7F7B;}
</style>
<g>
	<path class="st0" d="M15.57,0.73v9.23c0,0.09-0.01,0.17-0.04,0.24s-0.06,0.12-0.12,0.17c-0.06,0.04-0.11,0.08-0.15,0.1   c-0.04,0.03-0.11,0.05-0.21,0.05c-0.1,0.01-0.17,0.02-0.2,0.02c-0.04,0-0.11,0-0.23,0s-0.19,0-0.2,0c0,0.64-0.23,1.18-0.68,1.63   c-0.45,0.45-0.99,0.68-1.63,0.68s-1.18-0.23-1.63-0.68c-0.45-0.45-0.68-0.99-0.68-1.63H6.34c0,0.64-0.23,1.18-0.68,1.63   s-0.99,0.68-1.63,0.68c-0.64,0-1.18-0.23-1.63-0.68c-0.45-0.45-0.68-0.99-0.68-1.63H1.15c-0.02,0-0.09,0-0.2,0s-0.19,0-0.23,0   c-0.04,0-0.1-0.01-0.2-0.02c-0.1-0.01-0.17-0.03-0.21-0.05c-0.04-0.03-0.09-0.06-0.15-0.1s-0.1-0.1-0.12-0.17S0,10.05,0,9.96   C0,9.8,0.06,9.67,0.17,9.55c0.11-0.11,0.25-0.17,0.41-0.17V6.5c0-0.05,0-0.15,0-0.32c0-0.16,0-0.28,0-0.34   c0-0.07,0.01-0.17,0.02-0.31C0.61,5.39,0.63,5.28,0.65,5.2s0.07-0.17,0.13-0.27s0.13-0.19,0.2-0.27l1.78-1.78   c0.11-0.11,0.27-0.21,0.46-0.29C3.41,2.5,3.59,2.46,3.75,2.46h1.44V0.73c0-0.16,0.06-0.29,0.17-0.41c0.11-0.11,0.25-0.17,0.41-0.17   h9.23c0.16,0,0.29,0.06,0.41,0.17C15.51,0.44,15.57,0.57,15.57,0.73z M1.73,5.92h3.46V3.61H3.77c-0.08,0-0.14,0.03-0.2,0.08   L1.81,5.45c-0.05,0.05-0.08,0.12-0.08,0.2V5.92z M4.85,11.35c0.23-0.23,0.34-0.5,0.34-0.81S5.08,9.95,4.85,9.72   C4.62,9.5,4.35,9.38,4.04,9.38c-0.31,0-0.58,0.11-0.81,0.34C3,9.95,2.88,10.22,2.88,10.53S3,11.12,3.23,11.35   c0.23,0.23,0.5,0.34,0.81,0.34C4.35,11.69,4.62,11.57,4.85,11.35z M12.92,11.35c0.23-0.23,0.34-0.5,0.34-0.81s-0.11-0.58-0.34-0.81   c-0.23-0.23-0.5-0.34-0.81-0.34S11.53,9.5,11.3,9.72c-0.23,0.23-0.34,0.5-0.34,0.81s0.12,0.58,0.34,0.81   c0.23,0.23,0.5,0.34,0.81,0.34S12.69,11.57,12.92,11.35z"/>
</g>
</svg>