<svg xmlns="http://www.w3.org/2000/svg" xmlns:xlink="http://www.w3.org/1999/xlink" version="1.1" id="Layer_1" x="0px" y="0px" viewBox="0 0 15.57 12.99" style="enable-background:new 0 0 15.57 12.99;" xml:space="preserve" width="142"  height="118" >
<style type="text/css">
	.st0{fill:#6D7F7B;}
</style>
<g>
	<path class="st0" d="M13.28,2c0.55,0,1.02,0.2,1.41,0.59c0.39,0.39,0.59,0.86,0.59,1.41v7c0,0.55-0.2,1.02-0.59,1.41   c-0.39,0.39-0.86,0.59-1.41,0.59h-11c-0.55,0-1.02-0.2-1.41-0.59C0.48,12.02,0.29,11.55,0.29,11V4c0-0.55,0.2-1.02,0.59-1.41   C1.26,2.19,1.74,2,2.29,2h1.75l0.4-1.06c0.1-0.25,0.28-0.48,0.54-0.66C5.24,0.09,5.51,0,5.79,0h4c0.28,0,0.55,0.09,0.81,0.28   c0.26,0.19,0.44,0.41,0.54,0.66L11.53,2H13.28z M5.31,9.97C6,10.65,6.82,11,7.79,11s1.79-0.34,2.47-1.03s1.03-1.51,1.03-2.47   c0-0.96-0.34-1.79-1.03-2.47S8.75,4,7.79,4S6,4.34,5.31,5.03S4.29,6.53,4.29,7.5C4.29,8.46,4.63,9.28,5.31,9.97z M6.2,5.91   c0.44-0.44,0.97-0.66,1.59-0.66s1.15,0.22,1.59,0.66c0.44,0.44,0.66,0.97,0.66,1.59S9.81,8.65,9.37,9.09   C8.93,9.53,8.4,9.75,7.79,9.75S6.64,9.53,6.2,9.09C5.76,8.65,5.54,8.12,5.54,7.5S5.76,6.35,6.2,5.91z"/>
</g>
</svg>