<svg xmlns="http://www.w3.org/2000/svg" id="Capa_1" enable-background="new 0 0 486 486" viewBox="0 0 486 486"><g><path d="m96 383v-200h240v200" fill="#ffdb85" style="fill: rgb(1, 183, 37);"/><path d="m336 223h60l80 80h-140" fill="#fff"/><path d="m336 383h140v-80h-140" fill="#e4e4f9" style="fill: #57BAE4;"/><circle cx="406" cy="383" fill="#cbcbf0" r="40"/><circle cx="406" cy="383" fill="#fff" r="10"/><circle cx="176" cy="383" fill="#cbcbf0" r="40"/><circle cx="176" cy="383" fill="#fff" r="10"/><path d="m196 83v30c0 16.569-13.431 30-30 30-16.569 0-30-13.431-30-30v-30z" fill="#e4e4f9" style="fill: rgb(216, 219, 41);"/><path d="m296 83v30c0 16.569-13.431 30-30 30-16.569 0-30-13.431-30-30v-30z" fill="#ccf5fc" style="fill: rgb(255, 255, 255);"/><path d="m246 63v30c0 16.569-13.431 30-30 30-16.569 0-30-13.431-30-30v-30z" fill="#ffdfe5" style="fill: rgb(175, 14, 44);"/><path d="m136 143c44.219-26.667 115.781-26.667 160 0l-60 110 20 60c-22.109 13.333-57.891 13.333-80 0l20-60z" fill="#fff"/><g fill="#8180dd"><path d="m483.071 295.929-80-80c-1.875-1.875-4.419-2.929-7.071-2.929h-50v-30c0-5.522-4.477-10-10-10h-44.973l13.752-25.212c2.564-4.7.971-10.586-3.615-13.352-.336-.203-.688-.391-1.027-.59 3.812-6.23 5.863-13.411 5.863-20.846v-30c0-5.522-4.477-10-10-10h-40v-10c0-5.522-4.477-10-10-10h-60c-5.523 0-10 4.478-10 10v10h-40c-5.523 0-10 4.478-10 10v30c0 7.435 2.051 14.616 5.863 20.846-.339.2-.691.388-1.027.59-4.585 2.766-6.179 8.651-3.615 13.352l13.752 25.212h-44.973c-5.523 0-10 4.478-10 10v10h-50c-5.523 0-10 4.478-10 10s4.477 10 10 10h50v40h-76c-5.523 0-10 4.478-10 10s4.477 10 10 10h76v110c0 5.522 4.477 10 10 10h31.006c4.646 22.795 24.847 40 48.994 40s44.348-17.205 48.994-40h132.012c4.646 22.795 24.847 40 48.994 40s44.348-17.205 48.994-40h21.006c5.523 0 10-4.478 10-10v-80c0-2.652-1.054-5.195-2.929-7.071zm-91.213-62.929 60 60h-105.858v-60zm-188.65 30h25.585l14.981 44.942c-16.551 6.713-38.995 6.713-55.546 0zm26.856-20h-28.128l-52.362-95.998c18.679-9.094 41.334-13.776 64.12-14.073.764.044 1.532.071 2.307.071s1.543-.027 2.307-.071c22.785.297 45.441 4.979 64.12 14.073zm55.936-150v20c0 4.36-1.413 8.545-4.001 11.991-10.265-4.099-21.426-7.189-33.148-9.208 4.501-6.471 7.149-14.322 7.149-22.783zm-90-20h40v20c0 11.028-8.972 20-20 20s-20-8.972-20-20zm-50 40v-20h30c0 8.461 2.648 16.312 7.149 22.783-11.722 2.019-22.883 5.109-33.148 9.208-2.588-3.446-4.001-7.631-4.001-11.991zm-20 140h-20v-60h45.882l33.255 60.967-18.624 55.871c-1.479 4.438.316 9.31 4.323 11.726 12.663 7.637 28.914 11.454 45.164 11.454s32.501-3.817 45.164-11.454c4.006-2.416 5.802-7.287 4.323-11.726l-18.624-55.871 33.255-60.967h45.882v180h-101.006c-4.646-22.795-24.847-40-48.994-40s-44.348 17.205-48.994 40h-21.006v-100h20c5.523 0 10-4.478 10-10s-4.477-10-10-10zm50 160c-16.542 0-30-13.458-30-30s13.458-30 30-30 30 13.458 30 30-13.458 30-30 30zm230 0c-16.542 0-30-13.458-30-30s13.458-30 30-30 30 13.458 30 30-13.458 30-30 30zm60-40h-11.006c-4.646-22.795-24.847-40-48.994-40s-44.348 17.205-48.994 40h-11.006v-60h120z" fill="#8180dd"/><path d="m56 313h-33c-5.523 0-10 4.478-10 10s4.477 10 10 10h33c5.523 0 10-4.478 10-10s-4.477-10-10-10z" fill="#8180dd"/></g></g></svg>