<svg xmlns="http://www.w3.org/2000/svg" xmlns:xlink="http://www.w3.org/1999/xlink" version="1.1" width="940" height="788" viewBox="0 0 940 788" xml:space="preserve">
<desc>Created with Fabric.js 3.5.0</desc>
<defs>
</defs>
<rect x="0" y="0" width="100%" height="100%" fill="#ffffff"/>
<g transform="matrix(1 0 0 1 470 394)" id="706454">
<g style="" vector-effect="non-scaling-stroke">
		<g transform="matrix(1 0 0 1 -35 0)" id="Layer_1">
<path style="stroke: none; stroke-width: 1; stroke-dasharray: none; stroke-linecap: butt; stroke-dashoffset: 0; stroke-linejoin: miter; stroke-miterlimit: 4; is-custom-font: none; font-file-url: none; fill: rgb(203,227,250); fill-rule: nonzero; opacity: 1;" transform=" translate(-205, -240)" d="M 313.5 8 h -217 c -13.25 0 -24 10.75 -24 24 v 416 c 0 13.25 10.75 24 24 24 h 217 c 13.25 0 24 -10.75 24 -24 V 32 C 337.5 18.75 326.75 8 313.5 8 z" stroke-linecap="round"/>
</g>
		<g transform="matrix(1 0 0 1 62.9203 -222)" id="Layer_1">
<path style="stroke: none; stroke-width: 1; stroke-dasharray: none; stroke-linecap: butt; stroke-dashoffset: 0; stroke-linejoin: miter; stroke-miterlimit: 4; is-custom-font: none; font-file-url: none; fill: rgb(238,247,255); fill-rule: nonzero; opacity: 1;" transform=" translate(-302.9202, -18)" d="M 324.066 28 h -42.32 c -5.205 0 -9.023 -4.891 -7.761 -9.94 L 276.5 8 h 37 c 6.103 0 11.677 2.282 15.914 6.041 C 334.903 18.91 331.404 28 324.066 28 z" stroke-linecap="round"/>
</g>
		<g transform="matrix(1 0 0 1 -145.815 0)" id="Layer_1">
<path style="stroke: none; stroke-width: 1; stroke-dasharray: none; stroke-linecap: butt; stroke-dashoffset: 0; stroke-linejoin: miter; stroke-miterlimit: 4; is-custom-font: none; font-file-url: none; fill: rgb(238,247,255); fill-rule: nonzero; opacity: 1;" transform=" translate(-94.185, -240)" d="M 115.87 16 v 448 c 0 4.418 -3.582 8 -8 8 H 96.5 c -13.255 0 -24 -10.745 -24 -24 V 32 c 0 -13.255 10.745 -24 24 -24 h 11.37 C 112.288 8 115.87 11.582 115.87 16 z" stroke-linecap="round"/>
</g>
		<g transform="matrix(1 0 0 1 -35 -212)" id="Layer_1">
<path style="stroke: none; stroke-width: 1; stroke-dasharray: none; stroke-linecap: butt; stroke-dashoffset: 0; stroke-linejoin: miter; stroke-miterlimit: 4; is-custom-font: none; font-file-url: none; fill: rgb(88,89,102); fill-rule: nonzero; opacity: 1;" transform=" translate(-205, -28)" d="M 276.5 8 l -5.46 21.82 C 268.37 40.5 258.77 48 247.76 48 h -85.52 c -11.01 0 -20.61 -7.5 -23.28 -18.18 L 133.5 8 H 276.5 z" stroke-linecap="round"/>
</g>
		<g transform="matrix(1 0 0 1 -35 -214.8927)" id="Layer_1">
<path style="stroke: none; stroke-width: 1; stroke-dasharray: none; stroke-linecap: butt; stroke-dashoffset: 0; stroke-linejoin: miter; stroke-miterlimit: 4; is-custom-font: none; font-file-url: none; fill: rgb(48,50,79); fill-rule: nonzero; opacity: 1;" transform=" translate(-205, -25.1073)" d="M 276.5 8 l -3.485 13.94 c -0.89 3.561 -4.09 6.06 -7.761 6.06 H 176.5 c -8.341 0 -15.689 4.258 -19.987 10.722 c -2.936 4.415 -9.354 4.677 -12.742 0.599 c -2.244 -2.702 -3.916 -5.923 -4.811 -9.501 L 133.5 8 H 276.5 z" stroke-linecap="round"/>
</g>
		<g transform="matrix(1 0 0 1 67.5 0)" id="Layer_1">
<circle style="stroke: none; stroke-width: 1; stroke-dasharray: none; stroke-linecap: butt; stroke-dashoffset: 0; stroke-linejoin: miter; stroke-miterlimit: 4; is-custom-font: none; font-file-url: none; fill: rgb(255,231,115); fill-rule: nonzero; opacity: 1;" cx="0" cy="0" r="100"/>
</g>
		<g transform="matrix(1 0 0 1 44.6212 -6.9045)" id="Layer_1">
<path style="stroke: none; stroke-width: 1; stroke-dasharray: none; stroke-linecap: butt; stroke-dashoffset: 0; stroke-linejoin: miter; stroke-miterlimit: 4; is-custom-font: none; font-file-url: none; fill: rgb(255,240,166); fill-rule: nonzero; opacity: 1;" transform=" translate(-284.6212, -233.0955)" d="M 357.276 153.248 c 7.737 4.449 4.815 16.407 -4.102 16.786 C 301.466 172.234 257.5 214.84 257.5 270 c 0 15.511 3.531 30.198 9.834 43.299 c 3.885 8.076 -5.296 16.242 -12.89 11.481 c -28.646 -17.962 -47.54 -50.043 -46.93 -86.493 c 0.919 -54.898 46.692 -99.138 101.591 -98.274 C 326.626 140.288 343.052 145.069 357.276 153.248 z" stroke-linecap="round"/>
</g>
		<g transform="matrix(1 0 0 1 -35.5 198)" id="Layer_1">
<path style="stroke: none; stroke-width: 1; stroke-dasharray: none; stroke-linecap: butt; stroke-dashoffset: 0; stroke-linejoin: miter; stroke-miterlimit: 4; is-custom-font: none; font-file-url: none; fill: rgb(0,0,0); fill-rule: nonzero; opacity: 1;" transform=" translate(-204.5, -438)" d="M 225.5 446 c 4.418 0 8 -3.582 8 -8 s -3.582 -8 -8 -8 h -42 c -4.418 0 -8 3.582 -8 8 s 3.582 8 8 8 H 225.5 z" stroke-linecap="round"/>
</g>
		<g transform="matrix(1 0 0 1 67.5 0)" id="Layer_1">
<path style="stroke: none; stroke-width: 1; stroke-dasharray: none; stroke-linecap: butt; stroke-dashoffset: 0; stroke-linejoin: miter; stroke-miterlimit: 4; is-custom-font: none; font-file-url: none; fill: rgb(0,0,0); fill-rule: nonzero; opacity: 1;" transform=" translate(-307.5, -240)" d="M 307.5 348 c 59.552 0 108 -48.449 108 -108 s -48.448 -108 -108 -108 s -108 48.449 -108 108 c 0 38.429 20.685 74.271 53.98 93.539 c 3.825 2.213 8.718 0.906 10.931 -2.917 c 2.213 -3.824 0.907 -8.718 -2.917 -10.931 C 233.124 303.273 215.5 272.738 215.5 240 c 0 -50.729 41.271 -92 92 -92 s 92 41.271 92 92 s -41.271 92 -92 92 c -4.418 0 -8 3.582 -8 8 S 303.082 348 307.5 348 z" stroke-linecap="round"/>
</g>
		<g transform="matrix(1 0 0 1 67.7625 -0.5005)" id="Layer_1">
<path style="stroke: none; stroke-width: 1; stroke-dasharray: none; stroke-linecap: butt; stroke-dashoffset: 0; stroke-linejoin: miter; stroke-miterlimit: 4; is-custom-font: none; font-file-url: none; fill: rgb(0,0,0); fill-rule: nonzero; opacity: 1;" transform=" translate(-307.7625, -239.4995)" d="M 307.763 267.739 c -5.727 0 -11.151 -2.272 -13.82 -5.789 c -2.67 -3.52 -7.688 -4.206 -11.209 -1.536 c -3.519 2.671 -4.207 7.69 -1.535 11.209 c 4.305 5.672 10.943 9.634 18.564 11.272 v 6.604 c 0 4.418 3.582 8 8 8 s 8 -3.582 8 -8 v -6.623 c 13.454 -2.95 23.404 -13.154 23.404 -25.257 c 0 -19.854 -17.933 -23.527 -29.799 -25.957 c -14.148 -2.897 -17.01 -4.627 -17.01 -10.282 c 0 -5.391 7.198 -10.119 15.404 -10.119 c 5.813 0 11.109 2.218 13.82 5.79 c 2.673 3.519 7.689 4.206 11.209 1.535 c 3.52 -2.672 4.206 -7.69 1.535 -11.209 c -4.306 -5.672 -10.944 -9.633 -18.564 -11.271 V 189.5 c 0 -4.418 -3.582 -8 -8 -8 s -8 3.582 -8 8 v 6.623 c -13.454 2.95 -23.404 13.154 -23.404 25.257 c 0 19.854 17.933 23.527 29.799 25.957 c 14.148 2.897 17.01 4.627 17.01 10.282 C 323.167 263.01 315.969 267.739 307.763 267.739 z" stroke-linecap="round"/>
</g>
		<g transform="matrix(1 0 0 1 -7.4987 0)" id="Layer_1">
<path style="stroke: none; stroke-width: 1; stroke-dasharray: none; stroke-linecap: butt; stroke-dashoffset: 0; stroke-linejoin: miter; stroke-miterlimit: 4; is-custom-font: none; font-file-url: none; fill: rgb(0,0,0); fill-rule: nonzero; opacity: 1;" transform=" translate(-232.5013, -240)" d="M 386.072 351.312 c -12.541 8.542 -26.284 14.821 -40.73 18.686 c -0.735 -3.66 -3.966 -6.417 -7.842 -6.417 c -4.418 0 -8 3.582 -8 8 v 1.63 c -81.689 11.568 -153.547 -52.075 -153.547 -133.149 c 0 -83.701 76.348 -148.043 159.897 -132.111 c 12.133 2.555 22.109 5.497 34.292 11.546 l -9.332 1.951 c -4.325 0.904 -7.098 5.143 -6.194 9.467 c 0.908 4.342 5.164 7.097 9.468 6.194 l 30.053 -6.282 c 4.629 -0.967 7.399 -5.711 6.003 -10.204 l -9.109 -29.319 c -1.312 -4.22 -5.797 -6.578 -10.014 -5.266 c -4.219 1.311 -6.576 5.794 -5.266 10.013 l 3.085 9.929 c -10.61 -5.427 -21.781 -9.557 -33.336 -12.31 V 32 c 0 -17.645 -14.355 -32 -32 -32 H 183.854 c -4.418 0 -8 3.582 -8 8 s 3.582 8 8 8 H 313.5 c 8.822 0 16 7.178 16 16 v 58.774 c -90.403 -11.393 -169.547 59.176 -169.547 149.288 c 0 89.961 79.007 160.713 169.547 149.284 V 448 c 0 8.822 -7.178 16 -16 16 h -217 c -8.822 0 -16 -7.178 -16 -16 V 32 c 0 -8.822 7.178 -16 16 -16 h 30.754 l 3.94 15.761 C 134.762 46.033 147.527 56 162.238 56 h 85.523 c 7.761 0 15.251 -2.818 21.091 -7.935 c 3.323 -2.912 3.657 -7.966 0.746 -11.289 c -2.914 -3.324 -7.968 -3.657 -11.289 -0.745 C 255.388 38.59 251.643 40 247.762 40 h -85.523 c -7.355 0 -13.738 -4.984 -15.522 -12.12 L 141.261 6.06 C 140.371 2.499 137.171 0 133.5 0 h -37 c -17.645 0 -32 14.355 -32 32 v 416 c 0 17.645 14.355 32 32 32 h 217 c 17.645 0 32 -14.355 32 -32 v -61.558 c 17.625 -4.201 34.392 -11.563 49.58 -21.907 c 3.651 -2.487 4.596 -7.463 2.108 -11.115 C 394.701 349.768 389.726 348.824 386.072 351.312 z" stroke-linecap="round"/>
</g>
</g>
</g>
<g transform="matrix(1.3658 0 0 1.3658 470.0059 394.0059)" id="3392">
<g style="" vector-effect="non-scaling-stroke">
		<g transform="matrix(1 0 0 1 -35 0)" id="Layer_1">
<path style="stroke: none; stroke-width: 1; stroke-dasharray: none; stroke-linecap: butt; stroke-dashoffset: 0; stroke-linejoin: miter; stroke-miterlimit: 4; is-custom-font: none; font-file-url: none; fill: rgb(203,227,250); fill-rule: nonzero; opacity: 1;" transform=" translate(-205, -240)" d="M 313.5 8 h -217 c -13.25 0 -24 10.75 -24 24 v 416 c 0 13.25 10.75 24 24 24 h 217 c 13.25 0 24 -10.75 24 -24 V 32 C 337.5 18.75 326.75 8 313.5 8 z" stroke-linecap="round"/>
</g>
		<g transform="matrix(1 0 0 1 62.9203 -222)" id="Layer_1">
<path style="stroke: none; stroke-width: 1; stroke-dasharray: none; stroke-linecap: butt; stroke-dashoffset: 0; stroke-linejoin: miter; stroke-miterlimit: 4; is-custom-font: none; font-file-url: none; fill: rgb(238,247,255); fill-rule: nonzero; opacity: 1;" transform=" translate(-302.9202, -18)" d="M 324.066 28 h -42.32 c -5.205 0 -9.023 -4.891 -7.761 -9.94 L 276.5 8 h 37 c 6.103 0 11.677 2.282 15.914 6.041 C 334.903 18.91 331.404 28 324.066 28 z" stroke-linecap="round"/>
</g>
		<g transform="matrix(1 0 0 1 -145.815 0)" id="Layer_1">
<path style="stroke: none; stroke-width: 1; stroke-dasharray: none; stroke-linecap: butt; stroke-dashoffset: 0; stroke-linejoin: miter; stroke-miterlimit: 4; is-custom-font: none; font-file-url: none; fill: rgb(238,247,255); fill-rule: nonzero; opacity: 1;" transform=" translate(-94.185, -240)" d="M 115.87 16 v 448 c 0 4.418 -3.582 8 -8 8 H 96.5 c -13.255 0 -24 -10.745 -24 -24 V 32 c 0 -13.255 10.745 -24 24 -24 h 11.37 C 112.288 8 115.87 11.582 115.87 16 z" stroke-linecap="round"/>
</g>
		<g transform="matrix(1 0 0 1 -35 -212)" id="Layer_1">
<path style="stroke: none; stroke-width: 1; stroke-dasharray: none; stroke-linecap: butt; stroke-dashoffset: 0; stroke-linejoin: miter; stroke-miterlimit: 4; is-custom-font: none; font-file-url: none; fill: rgb(88,89,102); fill-rule: nonzero; opacity: 1;" transform=" translate(-205, -28)" d="M 276.5 8 l -5.46 21.82 C 268.37 40.5 258.77 48 247.76 48 h -85.52 c -11.01 0 -20.61 -7.5 -23.28 -18.18 L 133.5 8 H 276.5 z" stroke-linecap="round"/>
</g>
		<g transform="matrix(1 0 0 1 -35 -214.8927)" id="Layer_1">
<path style="stroke: none; stroke-width: 1; stroke-dasharray: none; stroke-linecap: butt; stroke-dashoffset: 0; stroke-linejoin: miter; stroke-miterlimit: 4; is-custom-font: none; font-file-url: none; fill: rgb(48,50,79); fill-rule: nonzero; opacity: 1;" transform=" translate(-205, -25.1073)" d="M 276.5 8 l -3.485 13.94 c -0.89 3.561 -4.09 6.06 -7.761 6.06 H 176.5 c -8.341 0 -15.689 4.258 -19.987 10.722 c -2.936 4.415 -9.354 4.677 -12.742 0.599 c -2.244 -2.702 -3.916 -5.923 -4.811 -9.501 L 133.5 8 H 276.5 z" stroke-linecap="round"/>
</g>
		<g transform="matrix(1 0 0 1 67.5 0)" id="Layer_1">
<circle style="stroke: none; stroke-width: 1; stroke-dasharray: none; stroke-linecap: butt; stroke-dashoffset: 0; stroke-linejoin: miter; stroke-miterlimit: 4; is-custom-font: none; font-file-url: none; fill: rgb(255,231,115); fill-rule: nonzero; opacity: 1;" cx="0" cy="0" r="100"/>
</g>
		<g transform="matrix(1 0 0 1 44.6212 -6.9045)" id="Layer_1">
<path style="stroke: none; stroke-width: 1; stroke-dasharray: none; stroke-linecap: butt; stroke-dashoffset: 0; stroke-linejoin: miter; stroke-miterlimit: 4; is-custom-font: none; font-file-url: none; fill: rgb(255,240,166); fill-rule: nonzero; opacity: 1;" transform=" translate(-284.6212, -233.0955)" d="M 357.276 153.248 c 7.737 4.449 4.815 16.407 -4.102 16.786 C 301.466 172.234 257.5 214.84 257.5 270 c 0 15.511 3.531 30.198 9.834 43.299 c 3.885 8.076 -5.296 16.242 -12.89 11.481 c -28.646 -17.962 -47.54 -50.043 -46.93 -86.493 c 0.919 -54.898 46.692 -99.138 101.591 -98.274 C 326.626 140.288 343.052 145.069 357.276 153.248 z" stroke-linecap="round"/>
</g>
		<g transform="matrix(1 0 0 1 -35.5 198)" id="Layer_1">
<path style="stroke: none; stroke-width: 1; stroke-dasharray: none; stroke-linecap: butt; stroke-dashoffset: 0; stroke-linejoin: miter; stroke-miterlimit: 4; is-custom-font: none; font-file-url: none; fill: rgb(0,0,0); fill-rule: nonzero; opacity: 1;" transform=" translate(-204.5, -438)" d="M 225.5 446 c 4.418 0 8 -3.582 8 -8 s -3.582 -8 -8 -8 h -42 c -4.418 0 -8 3.582 -8 8 s 3.582 8 8 8 H 225.5 z" stroke-linecap="round"/>
</g>
		<g transform="matrix(1 0 0 1 67.5 0)" id="Layer_1">
<path style="stroke: none; stroke-width: 1; stroke-dasharray: none; stroke-linecap: butt; stroke-dashoffset: 0; stroke-linejoin: miter; stroke-miterlimit: 4; is-custom-font: none; font-file-url: none; fill: rgb(0,0,0); fill-rule: nonzero; opacity: 1;" transform=" translate(-307.5, -240)" d="M 307.5 348 c 59.552 0 108 -48.449 108 -108 s -48.448 -108 -108 -108 s -108 48.449 -108 108 c 0 38.429 20.685 74.271 53.98 93.539 c 3.825 2.213 8.718 0.906 10.931 -2.917 c 2.213 -3.824 0.907 -8.718 -2.917 -10.931 C 233.124 303.273 215.5 272.738 215.5 240 c 0 -50.729 41.271 -92 92 -92 s 92 41.271 92 92 s -41.271 92 -92 92 c -4.418 0 -8 3.582 -8 8 S 303.082 348 307.5 348 z" stroke-linecap="round"/>
</g>
		<g transform="matrix(1 0 0 1 67.7625 -0.5005)" id="Layer_1">
<path style="stroke: none; stroke-width: 1; stroke-dasharray: none; stroke-linecap: butt; stroke-dashoffset: 0; stroke-linejoin: miter; stroke-miterlimit: 4; is-custom-font: none; font-file-url: none; fill: rgb(0,0,0); fill-rule: nonzero; opacity: 1;" transform=" translate(-307.7625, -239.4995)" d="M 307.763 267.739 c -5.727 0 -11.151 -2.272 -13.82 -5.789 c -2.67 -3.52 -7.688 -4.206 -11.209 -1.536 c -3.519 2.671 -4.207 7.69 -1.535 11.209 c 4.305 5.672 10.943 9.634 18.564 11.272 v 6.604 c 0 4.418 3.582 8 8 8 s 8 -3.582 8 -8 v -6.623 c 13.454 -2.95 23.404 -13.154 23.404 -25.257 c 0 -19.854 -17.933 -23.527 -29.799 -25.957 c -14.148 -2.897 -17.01 -4.627 -17.01 -10.282 c 0 -5.391 7.198 -10.119 15.404 -10.119 c 5.813 0 11.109 2.218 13.82 5.79 c 2.673 3.519 7.689 4.206 11.209 1.535 c 3.52 -2.672 4.206 -7.69 1.535 -11.209 c -4.306 -5.672 -10.944 -9.633 -18.564 -11.271 V 189.5 c 0 -4.418 -3.582 -8 -8 -8 s -8 3.582 -8 8 v 6.623 c -13.454 2.95 -23.404 13.154 -23.404 25.257 c 0 19.854 17.933 23.527 29.799 25.957 c 14.148 2.897 17.01 4.627 17.01 10.282 C 323.167 263.01 315.969 267.739 307.763 267.739 z" stroke-linecap="round"/>
</g>
		<g transform="matrix(1 0 0 1 -7.4987 0)" id="Layer_1">
<path style="stroke: none; stroke-width: 1; stroke-dasharray: none; stroke-linecap: butt; stroke-dashoffset: 0; stroke-linejoin: miter; stroke-miterlimit: 4; is-custom-font: none; font-file-url: none; fill: rgb(0,0,0); fill-rule: nonzero; opacity: 1;" transform=" translate(-232.5013, -240)" d="M 386.072 351.312 c -12.541 8.542 -26.284 14.821 -40.73 18.686 c -0.735 -3.66 -3.966 -6.417 -7.842 -6.417 c -4.418 0 -8 3.582 -8 8 v 1.63 c -81.689 11.568 -153.547 -52.075 -153.547 -133.149 c 0 -83.701 76.348 -148.043 159.897 -132.111 c 12.133 2.555 22.109 5.497 34.292 11.546 l -9.332 1.951 c -4.325 0.904 -7.098 5.143 -6.194 9.467 c 0.908 4.342 5.164 7.097 9.468 6.194 l 30.053 -6.282 c 4.629 -0.967 7.399 -5.711 6.003 -10.204 l -9.109 -29.319 c -1.312 -4.22 -5.797 -6.578 -10.014 -5.266 c -4.219 1.311 -6.576 5.794 -5.266 10.013 l 3.085 9.929 c -10.61 -5.427 -21.781 -9.557 -33.336 -12.31 V 32 c 0 -17.645 -14.355 -32 -32 -32 H 183.854 c -4.418 0 -8 3.582 -8 8 s 3.582 8 8 8 H 313.5 c 8.822 0 16 7.178 16 16 v 58.774 c -90.403 -11.393 -169.547 59.176 -169.547 149.288 c 0 89.961 79.007 160.713 169.547 149.284 V 448 c 0 8.822 -7.178 16 -16 16 h -217 c -8.822 0 -16 -7.178 -16 -16 V 32 c 0 -8.822 7.178 -16 16 -16 h 30.754 l 3.94 15.761 C 134.762 46.033 147.527 56 162.238 56 h 85.523 c 7.761 0 15.251 -2.818 21.091 -7.935 c 3.323 -2.912 3.657 -7.966 0.746 -11.289 c -2.914 -3.324 -7.968 -3.657 -11.289 -0.745 C 255.388 38.59 251.643 40 247.762 40 h -85.523 c -7.355 0 -13.738 -4.984 -15.522 -12.12 L 141.261 6.06 C 140.371 2.499 137.171 0 133.5 0 h -37 c -17.645 0 -32 14.355 -32 32 v 416 c 0 17.645 14.355 32 32 32 h 217 c 17.645 0 32 -14.355 32 -32 v -61.558 c 17.625 -4.201 34.392 -11.563 49.58 -21.907 c 3.651 -2.487 4.596 -7.463 2.108 -11.115 C 394.701 349.768 389.726 348.824 386.072 351.312 z" stroke-linecap="round"/>
</g>
</g>
</g>
</svg>